<svg width="102" height="26" viewBox="0 0 102 26" fill="none" xmlns="http://www.w3.org/2000/svg">
<path d="M8.77734 17.6055C8.8138 17.7331 8.86849 17.8516 8.94141 17.9609C8.99609 18.0521 9.06901 18.1432 9.16016 18.2344C9.26953 18.3073 9.39714 18.3529 9.54297 18.3711C9.41536 18.6263 9.28776 18.7995 9.16016 18.8906C9.08724 18.9453 9.02344 18.9818 8.96875 19C8.80469 19.0547 8.55859 19.082 8.23047 19.082C7.90234 19.082 7.58333 18.9818 7.27344 18.7812C7.16406 18.6901 7.0638 18.5534 6.97266 18.3711C6.88151 18.2253 6.79948 18.0247 6.72656 17.7695C6.67188 17.4961 6.6263 17.1497 6.58984 16.7305C6.33464 17.2773 6.04297 17.7148 5.71484 18.043C5.40495 18.3529 5.09505 18.5807 4.78516 18.7266C4.4388 18.9271 4.08333 19.0456 3.71875 19.082C3.26302 19.1185 2.82552 19.0456 2.40625 18.8633C2.00521 18.6628 1.65885 18.3711 1.36719 17.9883C1.09375 17.5872 0.884115 17.1042 0.738281 16.5391C0.592448 15.974 0.546875 15.3359 0.601562 14.625C0.65625 13.8776 0.802083 13.2122 1.03906 12.6289C1.27604 12.0456 1.55859 11.526 1.88672 11.0703C2.21484 10.6146 2.5612 10.2318 2.92578 9.92188C3.29036 9.59375 3.63672 9.32943 3.96484 9.12891C4.3112 8.91016 4.60286 8.75521 4.83984 8.66406C5.09505 8.55469 5.25911 8.49089 5.33203 8.47266C5.53255 8.41797 5.70573 8.39974 5.85156 8.41797C5.9974 8.4362 6.125 8.51823 6.23438 8.66406C6.27083 8.71875 6.31641 8.78255 6.37109 8.85547C6.40755 8.92839 6.45312 9.02865 6.50781 9.15625C6.5625 9.26562 6.60807 9.39323 6.64453 9.53906C6.20703 9.73958 5.79688 9.96745 5.41406 10.2227C5.03125 10.4596 4.67578 10.7513 4.34766 11.0977C4.03776 11.444 3.76432 11.8633 3.52734 12.3555C3.29036 12.8477 3.10807 13.4492 2.98047 14.1602C2.79818 15.0534 2.84375 15.7734 3.11719 16.3203C3.40885 16.8672 3.80078 17.0951 4.29297 17.0039C4.58464 16.9128 4.86719 16.7396 5.14062 16.4844C5.3776 16.2656 5.6237 15.9375 5.87891 15.5C6.15234 15.0625 6.40755 14.4609 6.64453 13.6953C6.73568 12.6016 6.80859 11.7448 6.86328 11.125C6.9362 10.487 7 10.0039 7.05469 9.67578C7.1276 9.29297 7.18229 9.03776 7.21875 8.91016C7.27344 8.81901 7.38281 8.73698 7.54688 8.66406C7.71094 8.57292 7.89323 8.5 8.09375 8.44531C8.29427 8.39062 8.47656 8.36328 8.64062 8.36328C8.80469 8.34505 8.91406 8.34505 8.96875 8.36328C9.00521 8.38151 9.02344 8.60938 9.02344 9.04688C9.02344 9.46615 9.00521 10.0039 8.96875 10.6602C8.95052 11.2982 8.92318 12 8.88672 12.7656C8.85026 13.513 8.8138 14.224 8.77734 14.8984C8.75911 15.5729 8.74089 16.1654 8.72266 16.6758C8.72266 17.168 8.74089 17.4779 8.77734 17.6055ZM13.4258 14.707C13.6445 14.0508 13.8268 13.4948 13.9727 13.0391C14.1367 12.5833 14.2734 12.2188 14.3828 11.9453C14.5104 11.6172 14.6198 11.3529 14.7109 11.1523C14.8203 10.8607 14.9388 10.569 15.0664 10.2773C15.2122 9.98568 15.3581 9.72135 15.5039 9.48438C15.6497 9.22917 15.7865 9.01953 15.9141 8.85547C16.0417 8.69141 16.151 8.58203 16.2422 8.52734C16.3151 8.49089 16.4792 8.49089 16.7344 8.52734C17.0078 8.5638 17.2995 8.65495 17.6094 8.80078C17.9375 8.92839 18.2383 9.11068 18.5117 9.34766C18.8034 9.58464 19.0039 9.8763 19.1133 10.2227C19.2227 10.6419 19.2591 11.1888 19.2227 11.8633C19.1862 12.5378 19.1315 13.2305 19.0586 13.9414C19.0039 14.6523 18.9583 15.3268 18.9219 15.9648C18.9036 16.6029 18.9492 17.0859 19.0586 17.4141C19.1315 17.5964 19.2044 17.7786 19.2773 17.9609C19.3503 18.1068 19.4323 18.2617 19.5234 18.4258C19.6328 18.5716 19.7513 18.6992 19.8789 18.8086C19.3503 19.0091 18.9219 19.1549 18.5938 19.2461C18.2839 19.3555 18.0469 19.4284 17.8828 19.4648C17.6823 19.5195 17.5456 19.5286 17.4727 19.4922C17.3268 19.4375 17.1901 19.3008 17.0625 19.082C16.9349 18.8633 16.8255 18.5169 16.7344 18.043C16.6979 17.8971 16.6888 17.6419 16.707 17.2773C16.7253 16.9128 16.7526 16.5026 16.7891 16.0469C16.8255 15.5911 16.862 15.1172 16.8984 14.625C16.9349 14.1146 16.9714 13.6406 17.0078 13.2031C17.0443 12.7656 17.0625 12.3828 17.0625 12.0547C17.0807 11.7266 17.0807 11.5078 17.0625 11.3984C16.9714 11.0885 16.8438 10.8698 16.6797 10.7422C16.5156 10.5964 16.388 10.5781 16.2969 10.6875C16.0781 10.9609 15.832 11.4349 15.5586 12.1094C15.3034 12.7656 15.0573 13.4857 14.8203 14.2695C14.5833 15.0352 14.3737 15.8008 14.1914 16.5664C14.0273 17.332 13.9271 17.9609 13.8906 18.4531C13.8906 18.5625 13.7995 18.681 13.6172 18.8086C13.4531 18.918 13.2617 19.0182 13.043 19.1094C12.8424 19.2005 12.6419 19.2552 12.4414 19.2734C12.2409 19.3099 12.1042 19.2826 12.0312 19.1914C11.9766 19.1367 11.8581 19.0091 11.6758 18.8086C11.5117 18.6081 11.4206 18.2708 11.4023 17.7969C11.3659 17.3411 11.3659 16.7214 11.4023 15.9375C11.4388 15.1354 11.4479 14.2969 11.4297 13.4219V11.3984C11.4297 10.5781 11.4206 9.44792 11.4023 8.00781C11.4023 6.54948 11.3932 4.6263 11.375 2.23828C11.5755 2.12891 11.7578 2.03776 11.9219 1.96484C12.0859 1.8737 12.2409 1.80078 12.3867 1.74609C12.5508 1.67318 12.7057 1.61849 12.8516 1.58203C13.6354 1.38151 14.0456 1.38151 14.082 1.58203C14.1003 1.76432 14.082 2.34766 14.0273 3.33203C14.0091 3.7513 13.9818 4.27995 13.9453 4.91797C13.9089 5.55599 13.8633 6.33073 13.8086 7.24219C13.7721 8.15365 13.7174 9.22917 13.6445 10.4688C13.5898 11.6901 13.5169 13.1029 13.4258 14.707ZM27.2344 10.4688C27.0885 10.4688 26.9245 10.5508 26.7422 10.7148C26.5781 10.8607 26.4141 11.0703 26.25 11.3438C26.0859 11.599 25.9219 11.8906 25.7578 12.2188C25.5938 12.5286 25.4479 12.8477 25.3203 13.1758C25.0104 13.9414 24.7096 14.7253 24.418 15.5273C24.1263 16.3294 23.9531 17.0221 23.8984 17.6055C23.8802 17.6602 23.8711 17.7148 23.8711 17.7695C23.8711 17.806 23.8711 17.8424 23.8711 17.8789C23.8529 17.9154 23.8438 17.9701 23.8438 18.043C23.8073 18.2982 23.7526 18.5078 23.6797 18.6719C23.625 18.8177 23.4974 18.918 23.2969 18.9727C23.0781 19.0091 22.8594 19.0365 22.6406 19.0547C22.4219 19.0729 22.2122 19.0547 22.0117 19C21.8841 18.9635 21.7839 18.8997 21.7109 18.8086C21.6562 18.6992 21.6107 18.5807 21.5742 18.4531C21.556 18.3073 21.5378 18.1706 21.5195 18.043C21.5195 17.9154 21.5195 17.806 21.5195 17.7148C21.5195 17.6055 21.5286 17.2682 21.5469 16.7031C21.5651 16.1198 21.5833 15.4635 21.6016 14.7344C21.6198 14.0052 21.6289 13.2943 21.6289 12.6016C21.6289 11.8906 21.6198 11.3529 21.6016 10.9883C21.5651 10.7331 21.5286 10.4961 21.4922 10.2773C21.4557 10.0768 21.4102 9.8763 21.3555 9.67578C21.319 9.47526 21.2552 9.30208 21.1641 9.15625C21.3646 9.04688 21.5651 8.95573 21.7656 8.88281C21.9661 8.8099 22.1484 8.75521 22.3125 8.71875C22.513 8.66406 22.6953 8.6276 22.8594 8.60938C23.2969 8.57292 23.6341 8.57292 23.8711 8.60938C24.1263 8.64583 24.2539 8.83724 24.2539 9.18359C24.2539 9.49349 24.2266 9.97656 24.1719 10.6328C24.1354 11.2708 24.0898 12.1641 24.0352 13.3125C24.2357 12.8568 24.4727 12.3464 24.7461 11.7812C25.0195 11.1979 25.3112 10.6602 25.6211 10.168C25.931 9.65755 26.25 9.23828 26.5781 8.91016C26.9062 8.5638 27.2161 8.39062 27.5078 8.39062C27.7083 8.39062 27.9362 8.4362 28.1914 8.52734C28.4648 8.60026 28.7201 8.70964 28.957 8.85547C29.194 8.98307 29.4036 9.12891 29.5859 9.29297C29.7865 9.45703 29.9232 9.62109 29.9961 9.78516C30.069 9.96745 30.1146 10.25 30.1328 10.6328C30.151 11.0156 30.151 11.444 30.1328 11.918C30.2786 11.5716 30.4427 11.2344 30.625 10.9062C30.8073 10.5781 30.9896 10.2773 31.1719 10.0039C31.3724 9.71224 31.5729 9.46615 31.7734 9.26562C31.974 9.0651 32.1562 8.92839 32.3203 8.85547C32.5391 8.76432 32.8034 8.74609 33.1133 8.80078C33.4232 8.85547 33.724 8.95573 34.0156 9.10156C34.3255 9.22917 34.5898 9.38411 34.8086 9.56641C35.0456 9.7487 35.1914 9.92188 35.2461 10.0859C35.3008 10.2682 35.3464 10.5508 35.3828 10.9336C35.4193 11.3164 35.4466 11.7357 35.4648 12.1914C35.4831 12.6471 35.4922 13.1211 35.4922 13.6133C35.4922 14.0872 35.4831 14.5065 35.4648 14.8711C35.4284 15.9284 35.4375 16.7669 35.4922 17.3867C35.5469 17.9883 35.7656 18.4349 36.1484 18.7266C35.8932 18.8906 35.6562 19.0091 35.4375 19.082C35.2188 19.1732 35.0273 19.237 34.8633 19.2734C34.6628 19.3281 34.4896 19.3555 34.3438 19.3555C34.1432 19.3555 33.9792 19.3008 33.8516 19.1914C33.724 19.1003 33.6237 18.9727 33.5508 18.8086C33.4779 18.6445 33.4323 18.4622 33.4141 18.2617C33.3958 18.0612 33.3867 17.8607 33.3867 17.6602C33.3867 17.4779 33.3958 17.1771 33.4141 16.7578C33.4505 16.3203 33.4779 15.8281 33.4961 15.2812C33.5143 14.7344 33.5143 14.1784 33.4961 13.6133C33.4779 13.0299 33.4323 12.5013 33.3594 12.0273C33.3047 11.5352 33.2044 11.1341 33.0586 10.8242C32.9128 10.5143 32.7122 10.3594 32.457 10.3594C32.2383 10.3594 32.0286 10.4961 31.8281 10.7695C31.6276 11.0247 31.4362 11.3711 31.2539 11.8086C31.0716 12.2279 30.9076 12.7018 30.7617 13.2305C30.6341 13.7409 30.5156 14.2513 30.4062 14.7617C30.2969 15.2721 30.2148 15.7461 30.1602 16.1836C30.1055 16.6029 30.0781 16.9401 30.0781 17.1953L30.0508 16.9492C30.0508 17.2956 30.0508 17.6146 30.0508 17.9062C30.069 18.1979 30.0872 18.4896 30.1055 18.7812C30.1237 18.8906 30.0234 18.9818 29.8047 19.0547C29.5859 19.1458 29.3398 19.1823 29.0664 19.1641C28.8112 19.1641 28.5742 19.1094 28.3555 19C28.1367 18.8906 28.0273 18.7083 28.0273 18.4531C28.0273 18.2708 28.0273 17.9974 28.0273 17.6328C28.0273 17.2682 28.0182 16.8581 28 16.4023C28 15.9466 27.9909 15.4727 27.9727 14.9805C27.9727 14.4701 27.9635 13.987 27.9453 13.5312C27.9453 13.1849 27.9362 12.8294 27.918 12.4648C27.918 12.1003 27.8997 11.7721 27.8633 11.4805C27.8268 11.1706 27.7539 10.9245 27.6445 10.7422C27.5534 10.5599 27.4167 10.4688 27.2344 10.4688ZM45.4727 17.6055C45.5091 17.7331 45.5638 17.8516 45.6367 17.9609C45.6914 18.0521 45.7643 18.1432 45.8555 18.2344C45.9648 18.3073 46.0924 18.3529 46.2383 18.3711C46.1107 18.6263 45.9831 18.7995 45.8555 18.8906C45.7826 18.9453 45.7188 18.9818 45.6641 19C45.5 19.0547 45.2539 19.082 44.9258 19.082C44.5977 19.082 44.2786 18.9818 43.9688 18.7812C43.8594 18.6901 43.7591 18.5534 43.668 18.3711C43.5768 18.2253 43.4948 18.0247 43.4219 17.7695C43.3672 17.4961 43.3216 17.1497 43.2852 16.7305C43.0299 17.2773 42.7383 17.7148 42.4102 18.043C42.1003 18.3529 41.7904 18.5807 41.4805 18.7266C41.1341 18.9271 40.7786 19.0456 40.4141 19.082C39.9583 19.1185 39.5208 19.0456 39.1016 18.8633C38.7005 18.6628 38.3542 18.3711 38.0625 17.9883C37.7891 17.5872 37.5794 17.1042 37.4336 16.5391C37.2878 15.974 37.2422 15.3359 37.2969 14.625C37.3516 13.8776 37.4974 13.2122 37.7344 12.6289C37.9714 12.0456 38.2539 11.526 38.582 11.0703C38.9102 10.6146 39.2565 10.2318 39.6211 9.92188C39.9857 9.59375 40.332 9.32943 40.6602 9.12891C41.0065 8.91016 41.2982 8.75521 41.5352 8.66406C41.7904 8.55469 41.9544 8.49089 42.0273 8.47266C42.2279 8.41797 42.401 8.39974 42.5469 8.41797C42.6927 8.4362 42.8203 8.51823 42.9297 8.66406C42.9661 8.71875 43.0117 8.78255 43.0664 8.85547C43.1029 8.92839 43.1484 9.02865 43.2031 9.15625C43.2578 9.26562 43.3034 9.39323 43.3398 9.53906C42.9023 9.73958 42.4922 9.96745 42.1094 10.2227C41.7266 10.4596 41.3711 10.7513 41.043 11.0977C40.7331 11.444 40.4596 11.8633 40.2227 12.3555C39.9857 12.8477 39.8034 13.4492 39.6758 14.1602C39.4935 15.0534 39.5391 15.7734 39.8125 16.3203C40.1042 16.8672 40.4961 17.0951 40.9883 17.0039C41.2799 16.9128 41.5625 16.7396 41.8359 16.4844C42.0729 16.2656 42.319 15.9375 42.5742 15.5C42.8477 15.0625 43.1029 14.4609 43.3398 13.6953C43.431 12.6016 43.5039 11.7448 43.5586 11.125C43.6315 10.487 43.6953 10.0039 43.75 9.67578C43.8229 9.29297 43.8776 9.03776 43.9141 8.91016C43.9688 8.81901 44.0781 8.73698 44.2422 8.66406C44.4062 8.57292 44.5885 8.5 44.7891 8.44531C44.9896 8.39062 45.1719 8.36328 45.3359 8.36328C45.5 8.34505 45.6094 8.34505 45.6641 8.36328C45.7005 8.38151 45.7188 8.60938 45.7188 9.04688C45.7188 9.46615 45.7005 10.0039 45.6641 10.6602C45.6458 11.2982 45.6185 12 45.582 12.7656C45.5456 13.513 45.5091 14.224 45.4727 14.8984C45.4544 15.5729 45.4362 16.1654 45.418 16.6758C45.418 17.168 45.4362 17.4779 45.4727 17.6055ZM56.7109 1.63672C56.7109 1.83724 56.6927 2.22917 56.6562 2.8125C56.6198 3.39583 56.5742 4.09766 56.5195 4.91797C56.4648 5.73828 56.4102 6.64062 56.3555 7.625C56.3008 8.60938 56.2552 9.61198 56.2188 10.6328C56.1823 11.6536 56.1458 12.6107 56.1094 13.5039C56.0911 14.3789 56.082 15.1628 56.082 15.8555C56.1003 16.5482 56.1367 17.1315 56.1914 17.6055C56.2461 18.0612 56.3281 18.3711 56.4375 18.5352L55.207 19C55.1159 19.0365 55.0065 19.0547 54.8789 19.0547C54.7513 19.0547 54.6146 19.0182 54.4688 18.9453C54.3411 18.8724 54.2318 18.7448 54.1406 18.5625C54.0495 18.3802 54.0039 18.125 54.0039 17.7969C54.0039 17.6693 54.0039 17.5143 54.0039 17.332C54.0221 17.1315 54.0312 16.9036 54.0312 16.6484C53.8125 17.013 53.5755 17.3685 53.3203 17.7148C53.0651 18.0612 52.7826 18.362 52.4727 18.6172C52.181 18.8724 51.862 19.0729 51.5156 19.2188C51.1693 19.3828 50.8047 19.4648 50.4219 19.4648C50.0573 19.4648 49.7018 19.3828 49.3555 19.2188C49.0091 19.0729 48.6992 18.8451 48.4258 18.5352C48.1523 18.2253 47.9245 17.8242 47.7422 17.332C47.5781 16.8398 47.4961 16.2474 47.4961 15.5547C47.4961 14.2969 47.6419 13.2031 47.9336 12.2734C48.2253 11.3255 48.5898 10.5417 49.0273 9.92188C49.4831 9.28385 49.9661 8.8099 50.4766 8.5C51.0052 8.17188 51.4883 8.00781 51.9258 8.00781C52.6003 8.00781 53.1198 8.1901 53.4844 8.55469C53.849 8.90104 54.1133 9.26562 54.2773 9.64844C54.2956 9.11979 54.3047 8.6276 54.3047 8.17188C54.3229 7.69792 54.332 7.29688 54.332 6.96875C54.332 5.61979 54.3047 4.41667 54.25 3.35938C54.1953 2.30208 54.0586 1.5 53.8398 0.953125C54.0951 0.807292 54.3229 0.697917 54.5234 0.625C54.7422 0.552083 54.9336 0.497396 55.0977 0.460938C55.2982 0.40625 55.4714 0.378906 55.6172 0.378906C56.0182 0.378906 56.3008 0.497396 56.4648 0.734375C56.6289 0.953125 56.7109 1.25391 56.7109 1.63672ZM54.1133 14.3242C54.1497 13.8503 54.168 13.3581 54.168 12.8477C54.1862 12.319 54.2044 11.7904 54.2227 11.2617C54.0951 11.4622 53.9401 11.6354 53.7578 11.7812C53.5938 11.9271 53.4115 11.9635 53.2109 11.8906C53.2839 11.3438 53.2747 10.9245 53.1836 10.6328C53.1107 10.3411 53.0013 10.1224 52.8555 9.97656C52.6914 9.8125 52.5 9.72135 52.2812 9.70312C51.9531 9.70312 51.625 9.88542 51.2969 10.25C50.987 10.6146 50.7044 11.0703 50.4492 11.6172C50.2122 12.1458 50.0208 12.7201 49.875 13.3398C49.7292 13.9414 49.6562 14.4974 49.6562 15.0078C49.6562 16.0286 49.793 16.7396 50.0664 17.1406C50.3581 17.5417 50.668 17.7422 50.9961 17.7422C51.2695 17.7422 51.5521 17.6328 51.8438 17.4141C52.1536 17.1953 52.4453 16.9128 52.7188 16.5664C53.0104 16.2201 53.2747 15.8555 53.5117 15.4727C53.7669 15.0716 53.9674 14.6888 54.1133 14.3242Z" fill="#5C636A"/>
<path d="M62.6172 13.8047C63.0182 13.9505 63.401 14.0872 63.7656 14.2148C64.1302 14.3424 64.4492 14.4974 64.7227 14.6797C64.9961 14.862 65.2148 15.0807 65.3789 15.3359C65.543 15.5729 65.625 15.8737 65.625 16.2383C65.625 16.6758 65.5247 17.0859 65.3242 17.4688C65.1419 17.8516 64.8685 18.1888 64.5039 18.4805C64.1393 18.7721 63.6927 19 63.1641 19.1641C62.6536 19.3464 62.0794 19.4375 61.4414 19.4375C60.7305 19.4375 60.1562 19.3646 59.7188 19.2188C59.2812 19.0911 58.944 18.9362 58.707 18.7539C58.4701 18.5716 58.3151 18.3893 58.2422 18.207C58.1693 18.0247 58.1328 17.8789 58.1328 17.7695C58.1328 17.5508 58.1784 17.3138 58.2695 17.0586C58.3607 16.7852 58.5339 16.4935 58.7891 16.1836C58.8984 16.056 59.0169 15.9375 59.1445 15.8281C59.3997 15.6094 59.6549 15.4727 59.9102 15.418C59.8737 15.8372 59.9193 16.1836 60.0469 16.457C60.1927 16.7122 60.375 16.9128 60.5938 17.0586C60.8307 17.2044 61.0859 17.3047 61.3594 17.3594C61.651 17.4141 61.9245 17.4414 62.1797 17.4414C62.4349 17.4414 62.6901 17.4049 62.9453 17.332C63.2188 17.2591 63.4648 17.168 63.6836 17.0586C63.9023 16.931 64.0755 16.7943 64.2031 16.6484C64.349 16.4844 64.4219 16.3112 64.4219 16.1289C64.4219 15.9284 64.3398 15.7643 64.1758 15.6367C64.0117 15.5091 63.8021 15.4089 63.5469 15.3359C63.3099 15.2448 63.0456 15.181 62.7539 15.1445C62.4805 15.0898 62.2161 15.0352 61.9609 14.9805C61.7057 14.9258 61.3594 14.8529 60.9219 14.7617C60.5026 14.6523 60.0833 14.4883 59.6641 14.2695C59.263 14.0508 58.9076 13.7591 58.5977 13.3945C58.306 13.0299 58.1602 12.5469 58.1602 11.9453C58.1602 11.2526 58.3333 10.651 58.6797 10.1406C59.0443 9.61198 59.4818 9.17448 59.9922 8.82812C60.5208 8.46354 61.0768 8.1901 61.6602 8.00781C62.2435 7.82552 62.763 7.73438 63.2188 7.73438C63.4557 7.73438 63.7109 7.77083 63.9844 7.84375C64.2578 7.89844 64.513 8.00781 64.75 8.17188C64.987 8.31771 65.1784 8.51823 65.3242 8.77344C65.4883 9.02865 65.5703 9.35677 65.5703 9.75781C65.5703 10.1589 65.5339 10.487 65.4609 10.7422C65.4062 10.9792 65.3151 11.1706 65.1875 11.3164C65.0781 11.444 64.9414 11.526 64.7773 11.5625C64.6133 11.599 64.4219 11.6172 64.2031 11.6172C64.0573 11.6172 63.9206 11.599 63.793 11.5625C63.6836 11.526 63.5651 11.4896 63.4375 11.4531C63.3099 11.4167 63.1914 11.3529 63.082 11.2617C63.2643 11.043 63.401 10.8333 63.4922 10.6328C63.6016 10.4323 63.6562 10.1862 63.6562 9.89453C63.6562 9.63932 63.5833 9.41146 63.4375 9.21094C63.3099 9.01042 63.0911 8.91016 62.7812 8.91016C62.4531 8.91016 62.1341 8.97396 61.8242 9.10156C61.5326 9.22917 61.2682 9.40234 61.0312 9.62109C60.8125 9.83984 60.6302 10.0951 60.4844 10.3867C60.3568 10.6602 60.293 10.9609 60.293 11.2891C60.293 11.7812 60.4753 12.2461 60.8398 12.6836C61.2227 13.1211 61.8151 13.4948 62.6172 13.8047ZM75.1133 17.6055C75.1497 17.7331 75.2044 17.8516 75.2773 17.9609C75.332 18.0521 75.4049 18.1432 75.4961 18.2344C75.6055 18.3073 75.7331 18.3529 75.8789 18.3711C75.7513 18.6263 75.6237 18.7995 75.4961 18.8906C75.4232 18.9453 75.3594 18.9818 75.3047 19C75.1406 19.0547 74.8945 19.082 74.5664 19.082C74.2383 19.082 73.9193 18.9818 73.6094 18.7812C73.5 18.6901 73.3997 18.5534 73.3086 18.3711C73.2174 18.2253 73.1354 18.0247 73.0625 17.7695C73.0078 17.4961 72.9622 17.1497 72.9258 16.7305C72.6706 17.2773 72.3789 17.7148 72.0508 18.043C71.7409 18.3529 71.431 18.5807 71.1211 18.7266C70.7747 18.9271 70.4193 19.0456 70.0547 19.082C69.599 19.1185 69.1615 19.0456 68.7422 18.8633C68.3411 18.6628 67.9948 18.3711 67.7031 17.9883C67.4297 17.5872 67.2201 17.1042 67.0742 16.5391C66.9284 15.974 66.8828 15.3359 66.9375 14.625C66.9922 13.8776 67.138 13.2122 67.375 12.6289C67.612 12.0456 67.8945 11.526 68.2227 11.0703C68.5508 10.6146 68.8971 10.2318 69.2617 9.92188C69.6263 9.59375 69.9727 9.32943 70.3008 9.12891C70.6471 8.91016 70.9388 8.75521 71.1758 8.66406C71.431 8.55469 71.5951 8.49089 71.668 8.47266C71.8685 8.41797 72.0417 8.39974 72.1875 8.41797C72.3333 8.4362 72.4609 8.51823 72.5703 8.66406C72.6068 8.71875 72.6523 8.78255 72.707 8.85547C72.7435 8.92839 72.7891 9.02865 72.8438 9.15625C72.8984 9.26562 72.944 9.39323 72.9805 9.53906C72.543 9.73958 72.1328 9.96745 71.75 10.2227C71.3672 10.4596 71.0117 10.7513 70.6836 11.0977C70.3737 11.444 70.1003 11.8633 69.8633 12.3555C69.6263 12.8477 69.444 13.4492 69.3164 14.1602C69.1341 15.0534 69.1797 15.7734 69.4531 16.3203C69.7448 16.8672 70.1367 17.0951 70.6289 17.0039C70.9206 16.9128 71.2031 16.7396 71.4766 16.4844C71.7135 16.2656 71.9596 15.9375 72.2148 15.5C72.4883 15.0625 72.7435 14.4609 72.9805 13.6953C73.0716 12.6016 73.1445 11.7448 73.1992 11.125C73.2721 10.487 73.3359 10.0039 73.3906 9.67578C73.4635 9.29297 73.5182 9.03776 73.5547 8.91016C73.6094 8.81901 73.7188 8.73698 73.8828 8.66406C74.0469 8.57292 74.2292 8.5 74.4297 8.44531C74.6302 8.39062 74.8125 8.36328 74.9766 8.36328C75.1406 8.34505 75.25 8.34505 75.3047 8.36328C75.3411 8.38151 75.3594 8.60938 75.3594 9.04688C75.3594 9.46615 75.3411 10.0039 75.3047 10.6602C75.2865 11.2982 75.2591 12 75.2227 12.7656C75.1862 13.513 75.1497 14.224 75.1133 14.8984C75.0951 15.5729 75.0768 16.1654 75.0586 16.6758C75.0586 17.168 75.0768 17.4779 75.1133 17.6055ZM83.6719 8.82812C83.6719 8.6276 83.7904 8.48177 84.0273 8.39062C84.2826 8.28125 84.5469 8.22656 84.8203 8.22656C85.112 8.22656 85.3763 8.28125 85.6133 8.39062C85.8503 8.48177 85.9596 8.60938 85.9414 8.77344C85.9232 8.90104 85.9049 9.15625 85.8867 9.53906C85.8685 9.90365 85.8411 10.3411 85.8047 10.8516C85.7865 11.362 85.7591 11.9089 85.7227 12.4922C85.6862 13.0755 85.6497 13.6497 85.6133 14.2148C85.5951 14.7617 85.5768 15.2721 85.5586 15.7461C85.5586 16.2201 85.5586 16.5846 85.5586 16.8398C85.5586 17.168 85.5768 17.4688 85.6133 17.7422C85.6497 17.9792 85.6953 18.2161 85.75 18.4531C85.8047 18.6719 85.8867 18.8268 85.9961 18.918C85.8503 18.9727 85.6953 19.0091 85.5312 19.0273C85.3854 19.0456 85.2487 19.0638 85.1211 19.082C84.9753 19.1003 84.8294 19.1094 84.6836 19.1094C84.3737 19.1094 84.1094 19.0456 83.8906 18.918C83.6901 18.7904 83.5898 18.526 83.5898 18.125C83.5898 17.9245 83.599 17.6328 83.6172 17.25C83.6536 16.8672 83.6901 16.457 83.7266 16.0195C83.599 16.4023 83.444 16.7943 83.2617 17.1953C83.0794 17.5964 82.8516 17.9518 82.5781 18.2617C82.3229 18.5716 82.0312 18.8268 81.7031 19.0273C81.375 19.2279 81.0013 19.3281 80.582 19.3281C80.1081 19.3281 79.6706 19.2279 79.2695 19.0273C78.8867 18.8268 78.5495 18.5443 78.2578 18.1797C77.9661 17.7969 77.7474 17.332 77.6016 16.7852C77.4557 16.2383 77.401 15.6094 77.4375 14.8984C77.4375 14.3516 77.4466 13.7682 77.4648 13.1484C77.4831 12.6198 77.5104 12.0091 77.5469 11.3164C77.5833 10.6237 77.6471 9.90365 77.7383 9.15625C77.7565 9.08333 77.8841 8.99219 78.1211 8.88281C78.3581 8.77344 78.6224 8.68229 78.9141 8.60938C79.2057 8.53646 79.4883 8.50911 79.7617 8.52734C80.0352 8.54557 80.2357 8.65495 80.3633 8.85547C80.2721 9.18359 80.181 9.57552 80.0898 10.0312C79.9987 10.4688 79.9167 10.9245 79.8438 11.3984C79.7708 11.8724 79.7161 12.3372 79.6797 12.793C79.6432 13.2487 79.625 13.668 79.625 14.0508C79.625 14.3971 79.6432 14.7799 79.6797 15.1992C79.7161 15.6003 79.7799 15.9831 79.8711 16.3477C79.9805 16.694 80.1263 16.9857 80.3086 17.2227C80.5091 17.4596 80.7643 17.5781 81.0742 17.5781C81.4206 17.5781 81.7214 17.4323 81.9766 17.1406C82.25 16.8307 82.4779 16.4388 82.6602 15.9648C82.8424 15.4909 82.9974 14.9531 83.125 14.3516C83.2526 13.7318 83.3529 13.1211 83.4258 12.5195C83.5169 11.918 83.5716 11.3438 83.5898 10.7969C83.6263 10.2318 83.6536 9.75781 83.6719 9.375V8.82812ZM90.8633 19.2461C90.4805 19.2461 90.0885 19.1458 89.6875 18.9453C89.2865 18.7448 88.9128 18.444 88.5664 18.043C88.2201 17.6237 87.9375 17.1133 87.7188 16.5117C87.5 15.8919 87.3906 15.1719 87.3906 14.3516C87.3906 13.1484 87.5456 12.1549 87.8555 11.3711C88.1654 10.569 88.5391 9.93099 88.9766 9.45703C89.4323 8.96484 89.9245 8.61849 90.4531 8.41797C90.9818 8.21745 91.4648 8.11719 91.9023 8.11719C92.3581 8.11719 92.7318 8.19922 93.0234 8.36328C93.3333 8.50911 93.5885 8.68229 93.7891 8.88281V8.36328C93.8984 8.27214 94.0169 8.1901 94.1445 8.11719C94.2904 8.04427 94.4362 7.98958 94.582 7.95312C94.7279 7.89844 94.8828 7.87109 95.0469 7.87109H95.457C95.5664 7.88932 95.6758 7.90755 95.7852 7.92578C95.9128 7.94401 96.0039 7.98958 96.0586 8.0625C95.9492 10.4505 95.8581 12.3828 95.7852 13.8594C95.7122 15.3359 95.6576 16.4844 95.6211 17.3047C95.5664 18.2708 95.5299 18.9727 95.5117 19.4102C95.4753 20.1758 95.375 20.9323 95.2109 21.6797C95.0469 22.4453 94.7917 23.1289 94.4453 23.7305C94.099 24.332 93.6432 24.8151 93.0781 25.1797C92.513 25.5443 91.8203 25.7266 91 25.7266C90.2891 25.7266 89.7148 25.5898 89.2773 25.3164C88.8581 25.043 88.5299 24.7057 88.293 24.3047C88.0742 23.9036 87.9284 23.4753 87.8555 23.0195C87.7826 22.582 87.7461 22.181 87.7461 21.8164C87.7461 21.7253 87.7917 21.5885 87.8828 21.4062C87.9922 21.224 88.138 21.0326 88.3203 20.832C88.5208 20.6497 88.7669 20.4857 89.0586 20.3398C89.3503 20.194 89.6784 20.1029 90.043 20.0664C89.8789 20.5586 89.7786 21.0052 89.7422 21.4062C89.7057 21.625 89.6966 21.8438 89.7148 22.0625C89.7148 22.6641 89.8333 23.1654 90.0703 23.5664C90.3073 23.9674 90.6719 24.168 91.1641 24.168C91.6927 24.168 92.1211 23.9401 92.4492 23.4844C92.7773 23.0469 93.0234 22.5091 93.1875 21.8711C93.3698 21.2513 93.4883 20.5951 93.543 19.9023C93.6159 19.2279 93.6523 18.6536 93.6523 18.1797V17.3867C93.543 17.5872 93.4062 17.7969 93.2422 18.0156C93.0964 18.2344 92.9141 18.4349 92.6953 18.6172C92.4766 18.7995 92.2122 18.9453 91.9023 19.0547C91.6107 19.1823 91.2643 19.2461 90.8633 19.2461ZM91.9844 9.67578C91.6745 9.67578 91.3737 9.8125 91.082 10.0859C90.8086 10.3594 90.5625 10.724 90.3438 11.1797C90.125 11.6172 89.9518 12.1185 89.8242 12.6836C89.6966 13.2487 89.6328 13.8138 89.6328 14.3789C89.6328 14.7435 89.651 15.1172 89.6875 15.5C89.7422 15.8828 89.8333 16.2383 89.9609 16.5664C90.1068 16.8763 90.2891 17.1315 90.5078 17.332C90.7266 17.5326 91.0182 17.6328 91.3828 17.6328C91.6562 17.6146 91.9115 17.5052 92.1484 17.3047C92.349 17.1406 92.5495 16.8763 92.75 16.5117C92.9688 16.1471 93.1419 15.6276 93.2695 14.9531C93.4154 15.099 93.5247 15.2357 93.5977 15.3633C93.6888 15.4909 93.7617 15.6094 93.8164 15.7188C93.8346 15.5729 93.8438 15.3997 93.8438 15.1992C93.862 14.9987 93.8711 14.7708 93.8711 14.5156C93.8711 14.0234 93.8438 13.4948 93.7891 12.9297C93.7344 12.3464 93.6341 11.8177 93.4883 11.3438C93.3607 10.8698 93.1693 10.4779 92.9141 10.168C92.6771 9.83984 92.3672 9.67578 91.9844 9.67578ZM97.918 9.32031C97.918 9.21094 98.0638 9.09245 98.3555 8.96484C98.6471 8.83724 98.9661 8.73698 99.3125 8.66406C99.6771 8.57292 100.005 8.52734 100.297 8.52734C100.607 8.50911 100.762 8.57292 100.762 8.71875C100.762 8.99219 100.743 9.38411 100.707 9.89453C100.671 10.3867 100.625 10.9154 100.57 11.4805C100.516 12.0273 100.461 12.5833 100.406 13.1484C100.352 13.6953 100.315 14.1602 100.297 14.543C100.26 14.944 100.224 15.3815 100.188 15.8555C100.151 16.2565 100.124 16.7031 100.105 17.1953C100.087 17.6875 100.087 18.1888 100.105 18.6992C100.105 18.7904 100.014 18.8815 99.832 18.9727C99.6497 19.0638 99.4492 19.1276 99.2305 19.1641C99.0117 19.2188 98.8021 19.2461 98.6016 19.2461C98.401 19.2461 98.2917 19.2096 98.2734 19.1367C98.237 19.0638 98.2005 18.9362 98.1641 18.7539C98.1276 18.5716 98.0911 18.3164 98.0547 17.9883C98.0182 17.6419 97.9909 17.2044 97.9727 16.6758C97.9544 16.1289 97.9635 15.4727 98 14.707C98.0729 13.194 98.082 12.0273 98.0273 11.207C97.9727 10.3685 97.9362 9.73958 97.918 9.32031ZM99.832 3.87891C100.197 3.87891 100.543 3.98828 100.871 4.20703C101.199 4.42578 101.363 4.71745 101.363 5.08203C101.363 5.35547 101.29 5.61979 101.145 5.875C101.017 6.13021 100.853 6.35807 100.652 6.55859C100.452 6.75911 100.224 6.92318 99.9688 7.05078C99.7135 7.16016 99.4766 7.21484 99.2578 7.21484C98.9661 7.21484 98.7292 7.16927 98.5469 7.07812C98.3646 6.96875 98.2188 6.85026 98.1094 6.72266C98.0182 6.57682 97.9544 6.42188 97.918 6.25781C97.8815 6.09375 97.8633 5.9388 97.8633 5.79297C97.8633 5.61068 97.8906 5.41016 97.9453 5.19141C98 4.95443 98.1003 4.74479 98.2461 4.5625C98.3919 4.36198 98.5924 4.19792 98.8477 4.07031C99.1029 3.94271 99.431 3.87891 99.832 3.87891ZM99.1484 6.42188C99.2578 6.42188 99.3763 6.38542 99.5039 6.3125C99.6497 6.22135 99.7773 6.12109 99.8867 6.01172C100.014 5.90234 100.115 5.78385 100.188 5.65625C100.279 5.52865 100.324 5.41927 100.324 5.32812C100.324 5.18229 100.251 5.10938 100.105 5.10938C100.014 5.10938 99.8958 5.14583 99.75 5.21875C99.6224 5.29167 99.4948 5.38281 99.3672 5.49219C99.2396 5.58333 99.1302 5.69271 99.0391 5.82031C98.9661 5.92969 98.9297 6.03906 98.9297 6.14844C98.9297 6.33073 99.0026 6.42188 99.1484 6.42188Z" fill="#4A69BD"/>
</svg>
