<svg width="103" height="49" viewBox="0 0 103 49" fill="none" xmlns="http://www.w3.org/2000/svg">
<rect width="103" height="49" fill="white"/>
<path d="M5.42383 26.7949C5.1582 26.8835 4.88151 26.8724 4.59375 26.7617C4.32812 26.6289 4.08464 26.4297 3.86328 26.1641C3.64193 25.8984 3.46484 25.5885 3.33203 25.2344C3.22135 24.8802 3.16602 24.5039 3.16602 24.1055C3.45378 24.0612 3.76367 24.0169 4.0957 23.9727C4.42773 23.9062 4.73763 23.8509 5.02539 23.8066C5.35742 23.7624 5.67839 23.7181 5.98828 23.6738C6.01042 22.39 6.03255 21.1725 6.05469 20.0215C6.09896 18.8483 6.13216 17.8079 6.1543 16.9004C6.19857 15.9707 6.23177 15.196 6.25391 14.5762C6.29818 13.9342 6.33138 13.5026 6.35352 13.2812C6.35352 13.1706 6.40885 13.0599 6.51953 12.9492C6.69661 12.8164 6.95117 12.6283 7.2832 12.3848C7.63737 12.1413 8.03581 11.9199 8.47852 11.7207C8.85482 11.5658 9.09831 11.6211 9.20898 11.8867C9.3418 12.1302 9.4082 12.6061 9.4082 13.3145C9.36393 14.3105 9.31966 15.6497 9.27539 17.332C9.23112 19.0143 9.18685 20.9954 9.14258 23.2754C9.49674 23.2311 9.83984 23.1979 10.1719 23.1758C10.5039 23.1536 10.8581 23.1315 11.2344 23.1094C12.2526 23.0651 13.2376 23.0098 14.1895 22.9434C15.1634 22.877 16.0156 22.877 16.7461 22.9434C16.8568 19.778 16.89 17.4095 16.8457 15.8379C16.8014 14.2441 16.7793 13.3034 16.7793 13.0156C16.7793 12.8828 16.9232 12.7279 17.2109 12.5508C17.4987 12.3737 17.8086 12.2188 18.1406 12.0859C18.4948 11.931 18.8158 11.8314 19.1035 11.7871C19.3913 11.7207 19.5462 11.7318 19.5684 11.8203C19.5905 11.9753 19.5905 12.3626 19.5684 12.9824C19.5684 13.6022 19.5573 14.4766 19.5352 15.6055C19.5352 16.7122 19.5352 18.0957 19.5352 19.7559C19.5573 21.416 19.6016 23.3529 19.668 25.5664C19.6237 26.5846 19.6016 27.6471 19.6016 28.7539C19.6016 29.7057 19.6237 30.7682 19.668 31.9414C19.7122 33.1146 19.8118 34.2988 19.9668 35.4941C19.679 35.7376 19.3691 35.9258 19.0371 36.0586C18.7051 36.1914 18.3841 36.3021 18.0742 36.3906C17.7201 36.4792 17.3659 36.5456 17.0117 36.5898C16.8125 36.612 16.6465 36.5677 16.5137 36.457C16.403 36.3685 16.3255 36.2467 16.2812 36.0918C16.237 35.959 16.2038 35.8151 16.1816 35.6602C16.1816 35.5052 16.1816 35.3613 16.1816 35.2285C16.1816 34.9408 16.1816 34.6641 16.1816 34.3984C16.2038 34.1549 16.2259 33.9557 16.248 33.8008C16.2923 32.849 16.3477 31.6979 16.4141 30.3477C16.4805 28.9974 16.5469 27.4922 16.6133 25.832C16.4583 25.8099 16.3145 25.7988 16.1816 25.7988C16.0488 25.7767 15.8939 25.7546 15.7168 25.7324C14.7207 25.666 13.6361 25.666 12.4629 25.7324C11.3118 25.7988 10.1829 25.9095 9.07617 26.0645C9.05404 27.1491 9.05404 28.1784 9.07617 29.1523C9.09831 30.1042 9.12044 30.9785 9.14258 31.7754C9.18685 32.5501 9.23112 33.2253 9.27539 33.8008C9.31966 34.3542 9.36393 34.7637 9.4082 35.0293C9.43034 35.2507 9.39714 35.4056 9.30859 35.4941C9.22005 35.6048 9.08724 35.7487 8.91016 35.9258C8.75521 36.1029 8.54492 36.2689 8.2793 36.4238C8.03581 36.6009 7.73698 36.7448 7.38281 36.8555C7.02865 36.9883 6.61914 37.0547 6.1543 37.0547C5.93294 37.0547 5.82227 36.9551 5.82227 36.7559C5.82227 36.4681 5.82227 36.0143 5.82227 35.3945C5.8444 34.7747 5.85547 34.0221 5.85547 33.1367C5.8776 32.2513 5.88867 31.2663 5.88867 30.1816C5.91081 29.0749 5.93294 27.9017 5.95508 26.6621C5.8444 26.6842 5.74479 26.7064 5.65625 26.7285C5.58984 26.7507 5.51237 26.7728 5.42383 26.7949ZM30.2598 21.6484C30.2598 21.4049 30.4036 21.2279 30.6914 21.1172C31.0013 20.9844 31.3223 20.918 31.6543 20.918C32.0085 20.918 32.3294 20.9844 32.6172 21.1172C32.9049 21.2279 33.0378 21.3828 33.0156 21.582C32.9935 21.737 32.9714 22.0469 32.9492 22.5117C32.9271 22.9544 32.8939 23.4857 32.8496 24.1055C32.8275 24.7253 32.7943 25.3893 32.75 26.0977C32.7057 26.806 32.6615 27.5033 32.6172 28.1895C32.5951 28.8535 32.5729 29.4733 32.5508 30.0488C32.5508 30.6243 32.5508 31.0671 32.5508 31.377C32.5508 31.7754 32.5729 32.1406 32.6172 32.4727C32.6615 32.7604 32.7168 33.0482 32.7832 33.3359C32.8496 33.6016 32.9492 33.7897 33.082 33.9004C32.9049 33.9668 32.7168 34.0111 32.5176 34.0332C32.3405 34.0553 32.1745 34.0775 32.0195 34.0996C31.8424 34.1217 31.6654 34.1328 31.4883 34.1328C31.112 34.1328 30.791 34.0553 30.5254 33.9004C30.2819 33.7454 30.1602 33.4245 30.1602 32.9375C30.1602 32.694 30.1712 32.3398 30.1934 31.875C30.2376 31.4102 30.2819 30.9121 30.3262 30.3809C30.1712 30.8457 29.9831 31.3216 29.7617 31.8086C29.5404 32.2956 29.2637 32.7272 28.9316 33.1035C28.6217 33.4798 28.2676 33.7897 27.8691 34.0332C27.4707 34.2767 27.0169 34.3984 26.5078 34.3984C25.9323 34.3984 25.401 34.2767 24.9141 34.0332C24.4492 33.7897 24.0397 33.4466 23.6855 33.0039C23.3314 32.5391 23.0658 31.9746 22.8887 31.3105C22.7116 30.6465 22.6452 29.8828 22.6895 29.0195C22.6895 28.3555 22.7005 27.6471 22.7227 26.8945C22.7448 26.2526 22.778 25.5111 22.8223 24.6699C22.8665 23.8288 22.944 22.9544 23.0547 22.0469C23.0768 21.9583 23.2318 21.8477 23.5195 21.7148C23.8073 21.582 24.1283 21.4714 24.4824 21.3828C24.8366 21.2943 25.1797 21.2611 25.5117 21.2832C25.8438 21.3053 26.0872 21.4382 26.2422 21.6816C26.1315 22.0801 26.0208 22.556 25.9102 23.1094C25.7995 23.6406 25.6999 24.194 25.6113 24.7695C25.5228 25.3451 25.4564 25.9095 25.4121 26.4629C25.3678 27.0163 25.3457 27.5254 25.3457 27.9902C25.3457 28.4108 25.3678 28.8757 25.4121 29.3848C25.4564 29.8717 25.5339 30.3366 25.6445 30.7793C25.7773 31.1999 25.9544 31.554 26.1758 31.8418C26.4193 32.1296 26.7292 32.2734 27.1055 32.2734C27.526 32.2734 27.8913 32.0964 28.2012 31.7422C28.5332 31.3659 28.8099 30.89 29.0312 30.3145C29.2526 29.7389 29.4408 29.0859 29.5957 28.3555C29.7507 27.6029 29.8724 26.8613 29.9609 26.1309C30.0716 25.4004 30.138 24.7031 30.1602 24.0391C30.2044 23.3529 30.2376 22.7773 30.2598 22.3125V21.6484ZM38.9922 34.2988C38.5273 34.2988 38.0514 34.1771 37.5645 33.9336C37.0775 33.6901 36.6237 33.3249 36.2031 32.8379C35.7826 32.3288 35.4395 31.709 35.1738 30.9785C34.9082 30.2259 34.7754 29.3516 34.7754 28.3555C34.7754 26.8945 34.9635 25.6882 35.3398 24.7363C35.7161 23.7624 36.1699 22.9876 36.7012 22.4121C37.2546 21.8145 37.8522 21.3939 38.4941 21.1504C39.1361 20.9069 39.7227 20.7852 40.2539 20.7852C40.8073 20.7852 41.2611 20.8848 41.6152 21.084C41.9915 21.2611 42.3014 21.4714 42.5449 21.7148V21.084C42.6777 20.9733 42.8216 20.8737 42.9766 20.7852C43.1536 20.6966 43.3307 20.6302 43.5078 20.5859C43.6849 20.5195 43.873 20.4863 44.0723 20.4863H44.5703C44.7031 20.5085 44.8359 20.5306 44.9688 20.5527C45.1237 20.5749 45.2344 20.6302 45.3008 20.7188C45.168 23.6185 45.0573 25.9648 44.9688 27.7578C44.8802 29.5508 44.8138 30.9453 44.7695 31.9414C44.7031 33.1146 44.6589 33.9668 44.6367 34.498C44.5924 35.4277 44.4707 36.3464 44.2715 37.2539C44.0723 38.1836 43.7624 39.0137 43.3418 39.7441C42.9212 40.4746 42.3678 41.0612 41.6816 41.5039C40.9954 41.9466 40.1543 42.168 39.1582 42.168C38.2949 42.168 37.5977 42.002 37.0664 41.6699C36.5573 41.3379 36.1589 40.9284 35.8711 40.4414C35.6055 39.9544 35.4284 39.4342 35.3398 38.8809C35.2513 38.3496 35.207 37.8626 35.207 37.4199C35.207 37.3092 35.2624 37.1432 35.373 36.9219C35.5059 36.7005 35.6829 36.4681 35.9043 36.2246C36.1478 36.0033 36.4466 35.804 36.8008 35.627C37.1549 35.4499 37.5534 35.3392 37.9961 35.2949C37.7969 35.8926 37.6751 36.4349 37.6309 36.9219C37.5866 37.1875 37.5755 37.4531 37.5977 37.7188C37.5977 38.4492 37.7415 39.0579 38.0293 39.5449C38.3171 40.0319 38.7598 40.2754 39.3574 40.2754C39.9993 40.2754 40.5195 39.9987 40.918 39.4453C41.3164 38.9141 41.6152 38.2611 41.8145 37.4863C42.0358 36.7337 42.1797 35.9368 42.2461 35.0957C42.3346 34.2767 42.3789 33.5794 42.3789 33.0039V32.041C42.2461 32.2845 42.0801 32.5391 41.8809 32.8047C41.7038 33.0703 41.4824 33.3138 41.2168 33.5352C40.9512 33.7565 40.6302 33.9336 40.2539 34.0664C39.8997 34.2214 39.4792 34.2988 38.9922 34.2988ZM40.3535 22.6777C39.9772 22.6777 39.612 22.8438 39.2578 23.1758C38.9258 23.5078 38.627 23.9505 38.3613 24.5039C38.0957 25.0352 37.8854 25.6439 37.7305 26.3301C37.5755 27.0163 37.498 27.7025 37.498 28.3887C37.498 28.8314 37.5202 29.2852 37.5645 29.75C37.6309 30.2148 37.7415 30.6465 37.8965 31.0449C38.0736 31.4212 38.2949 31.7311 38.5605 31.9746C38.8262 32.2181 39.1803 32.3398 39.623 32.3398C39.9551 32.3177 40.265 32.1849 40.5527 31.9414C40.7962 31.7422 41.0397 31.4212 41.2832 30.9785C41.5488 30.5358 41.7591 29.9049 41.9141 29.0859C42.0911 29.263 42.224 29.429 42.3125 29.584C42.4232 29.7389 42.5117 29.8828 42.5781 30.0156C42.6003 29.8385 42.6113 29.6283 42.6113 29.3848C42.6335 29.1413 42.6445 28.8646 42.6445 28.5547C42.6445 27.957 42.6113 27.3151 42.5449 26.6289C42.4785 25.9206 42.3568 25.2786 42.1797 24.7031C42.0247 24.1276 41.7923 23.6517 41.4824 23.2754C41.1947 22.877 40.8184 22.6777 40.3535 22.6777ZM56.5234 28.2891C56.4792 29.1523 56.3242 29.9492 56.0586 30.6797C55.8151 31.4102 55.472 32.0521 55.0293 32.6055C54.5866 33.1367 54.0553 33.5573 53.4355 33.8672C52.8379 34.1771 52.1738 34.3431 51.4434 34.3652C50.8014 34.3874 50.1927 34.2324 49.6172 33.9004C49.0638 33.5684 48.5768 33.1035 48.1562 32.5059C47.7357 31.9082 47.4147 31.1999 47.1934 30.3809C46.9941 29.5397 46.9388 28.6322 47.0273 27.6582C47.0938 26.5293 47.304 25.5664 47.6582 24.7695C48.0124 23.9505 48.3887 23.2754 48.7871 22.7441C49.1855 22.2129 49.5508 21.8255 49.8828 21.582C50.237 21.3164 50.4583 21.1615 50.5469 21.1172C50.7018 21.0508 50.8457 21.0397 50.9785 21.084C51.1113 21.1061 51.2552 21.1393 51.4102 21.1836C51.4544 21.2057 51.4987 21.2611 51.543 21.3496C51.6315 21.5046 51.6868 21.7923 51.709 22.2129C51.8197 21.9694 51.9635 21.7702 52.1406 21.6152C52.3177 21.4603 52.4948 21.3496 52.6719 21.2832C52.8932 21.1947 53.1146 21.1393 53.3359 21.1172C53.4909 21.0951 53.7565 21.2168 54.1328 21.4824C54.5312 21.748 54.9076 22.1686 55.2617 22.7441C55.638 23.3197 55.959 24.0723 56.2246 25.002C56.4902 25.9095 56.5898 27.0052 56.5234 28.2891ZM54.2656 27.8906C54.2878 27.3594 54.2656 26.8281 54.1992 26.2969C54.1549 25.7435 54.0664 25.2454 53.9336 24.8027C53.8229 24.3379 53.679 23.9727 53.502 23.707C53.3249 23.4193 53.1478 23.2754 52.9707 23.2754C52.7715 23.3197 52.5501 23.4193 52.3066 23.5742C52.1074 23.707 51.8861 23.9173 51.6426 24.2051C51.3991 24.4928 51.1667 24.9023 50.9453 25.4336C50.9232 25.3672 50.901 25.2454 50.8789 25.0684C50.8568 24.9134 50.8346 24.7142 50.8125 24.4707C50.8125 24.2051 50.8346 23.8509 50.8789 23.4082C50.569 23.7845 50.3255 24.2272 50.1484 24.7363C49.9935 25.2454 49.8717 25.7324 49.7832 26.1973C49.6947 26.7507 49.6283 27.304 49.584 27.8574C49.5618 28.4551 49.584 29.0417 49.6504 29.6172C49.7389 30.1927 49.8717 30.7018 50.0488 31.1445C50.248 31.5872 50.4805 31.9414 50.7461 32.207C51.0117 32.4727 51.3327 32.5944 51.709 32.5723C52.0853 32.5501 52.4173 32.3952 52.7051 32.1074C52.9928 31.8197 53.2474 31.4544 53.4688 31.0117C53.6901 30.569 53.8672 30.071 54 29.5176C54.1328 28.9642 54.2214 28.4219 54.2656 27.8906Z" fill="#5C636A"/>
<path d="M58.748 13.3145C58.9251 13.071 59.1133 12.8607 59.3125 12.6836C59.5339 12.5065 59.7552 12.3626 59.9766 12.252C60.2201 12.1413 60.4746 12.0527 60.7402 11.9863C60.9395 11.9421 61.1276 11.9199 61.3047 11.9199C61.4596 11.9199 61.6035 11.931 61.7363 11.9531C61.8913 11.9753 62.013 12.0306 62.1016 12.1191C62.0573 13.1816 62.013 14.0892 61.9688 14.8418C61.9466 15.5723 61.9134 16.2142 61.8691 16.7676C61.847 17.321 61.8249 17.819 61.8027 18.2617C61.7806 18.6823 61.7474 19.1139 61.7031 19.5566C61.681 19.9993 61.6478 20.4863 61.6035 21.0176C61.5592 21.5267 61.515 22.1465 61.4707 22.877C61.4264 23.3418 61.3932 23.8177 61.3711 24.3047C61.349 24.7695 61.3268 25.2454 61.3047 25.7324C61.5039 25.179 61.7474 24.6035 62.0352 24.0059C62.3451 23.4082 62.6992 22.8659 63.0977 22.3789C63.4961 21.8919 63.9499 21.4935 64.459 21.1836C64.9681 20.8516 65.5215 20.6855 66.1191 20.6855C66.9603 20.6855 67.6354 20.929 68.1445 21.416C68.6536 21.903 69.041 22.5007 69.3066 23.209C69.5723 23.8952 69.7383 24.6257 69.8047 25.4004C69.8932 26.1751 69.9375 26.8613 69.9375 27.459C69.9375 28.0345 69.86 28.7207 69.7051 29.5176C69.5723 30.2923 69.3177 31.0449 68.9414 31.7754C68.5872 32.4837 68.1113 33.0924 67.5137 33.6016C66.916 34.1107 66.1634 34.3652 65.2559 34.3652C64.6139 34.3652 64.0716 34.2324 63.6289 33.9668C63.1862 33.7012 62.821 33.3913 62.5332 33.0371C62.2454 32.6829 62.0352 32.3288 61.9023 31.9746C61.7917 31.6204 61.7363 31.3659 61.7363 31.2109C61.7363 31.056 61.7917 30.8789 61.9023 30.6797C62.013 30.4583 62.1458 30.2591 62.3008 30.082C62.4557 29.8828 62.6217 29.7279 62.7988 29.6172C62.9759 29.4844 63.1198 29.429 63.2305 29.4512C63.1862 30.1816 63.2305 30.7461 63.3633 31.1445C63.5182 31.5208 63.6953 31.7975 63.8945 31.9746C64.138 32.196 64.4036 32.3177 64.6914 32.3398C65.112 32.3398 65.4772 32.1406 65.7871 31.7422C66.1191 31.3438 66.3958 30.8568 66.6172 30.2812C66.8385 29.7057 67.0046 29.0859 67.1152 28.4219C67.248 27.7357 67.3145 27.127 67.3145 26.5957C67.3145 26.1973 67.2812 25.7767 67.2148 25.334C67.1706 24.8691 67.0931 24.4486 66.9824 24.0723C66.8717 23.6738 66.7168 23.3529 66.5176 23.1094C66.3184 22.8659 66.0749 22.7441 65.7871 22.7441C65.3001 22.7441 64.791 23.0208 64.2598 23.5742C63.7285 24.1276 63.2415 24.8581 62.7988 25.7656C62.3561 26.651 61.9909 27.6582 61.7031 28.7871C61.4154 29.916 61.2826 31.0671 61.3047 32.2402C61.3047 32.5501 61.3158 32.8268 61.3379 33.0703C61.3822 33.2917 61.4264 33.4909 61.4707 33.668C60.9395 33.8893 60.5189 34.0221 60.209 34.0664C60.0319 34.1107 59.888 34.1217 59.7773 34.0996C59.4674 34.0996 59.2129 34.0111 59.0137 33.834C58.8145 33.6569 58.6927 33.2806 58.6484 32.7051C58.6263 32.5059 58.6152 31.9635 58.6152 31.0781C58.6152 30.1706 58.6152 29.0859 58.6152 27.8242C58.6152 26.5404 58.6152 25.1569 58.6152 23.6738C58.6374 22.1908 58.6484 20.763 58.6484 19.3906C58.6706 18.0182 58.6816 16.7897 58.6816 15.7051C58.7038 14.5983 58.7259 13.8014 58.748 13.3145ZM76.1797 12.4844C76.1354 13.2812 76.0579 14.1999 75.9473 15.2402C75.8366 16.2806 75.7148 17.3984 75.582 18.5938C75.4714 19.7891 75.3496 21.0397 75.2168 22.3457C75.1061 23.6517 75.0065 24.9688 74.918 26.2969C74.8294 27.625 74.7852 28.7096 74.7852 29.5508C74.8073 30.3698 74.8626 31.0449 74.9512 31.5762C75.0397 32.1074 75.1615 32.528 75.3164 32.8379C75.4714 33.1478 75.6706 33.4466 75.9141 33.7344C75.6263 33.9115 75.3607 34.0443 75.1172 34.1328C74.8737 34.2214 74.6634 34.2878 74.4863 34.332C74.265 34.3984 74.0658 34.4316 73.8887 34.4316C73.5566 34.4316 73.2689 34.2767 73.0254 33.9668C72.7819 33.6348 72.5827 33.2142 72.4277 32.7051C72.2949 32.196 72.1842 31.6315 72.0957 31.0117C72.0293 30.3698 71.9961 29.7389 71.9961 29.1191C71.9961 28.4551 72.0182 27.6914 72.0625 26.8281C72.1068 25.9427 72.151 25.013 72.1953 24.0391C72.2617 23.043 72.3281 22.0137 72.3945 20.9512C72.4609 19.8665 72.5163 18.793 72.5605 17.7305C72.6048 16.9115 72.6491 16.1699 72.6934 15.5059C72.7376 14.9303 72.7708 14.4102 72.793 13.9453C72.8151 13.4583 72.804 13.1706 72.7598 13.082C72.8926 12.9049 73.0586 12.7721 73.2578 12.6836C73.457 12.5951 73.6452 12.5176 73.8223 12.4512C74.0436 12.3848 74.265 12.3294 74.4863 12.2852H75.1172C75.2943 12.2852 75.4824 12.3073 75.6816 12.3516C75.8809 12.3737 76.0469 12.418 76.1797 12.4844ZM86.9043 28.2891C86.86 29.1523 86.7051 29.9492 86.4395 30.6797C86.196 31.4102 85.8529 32.0521 85.4102 32.6055C84.9674 33.1367 84.4362 33.5573 83.8164 33.8672C83.2188 34.1771 82.5547 34.3431 81.8242 34.3652C81.1823 34.3874 80.5736 34.2324 79.998 33.9004C79.4447 33.5684 78.9577 33.1035 78.5371 32.5059C78.1165 31.9082 77.7956 31.1999 77.5742 30.3809C77.375 29.5397 77.3197 28.6322 77.4082 27.6582C77.4746 26.5293 77.6849 25.5664 78.0391 24.7695C78.3932 23.9505 78.7695 23.2754 79.168 22.7441C79.5664 22.2129 79.9316 21.8255 80.2637 21.582C80.6178 21.3164 80.8392 21.1615 80.9277 21.1172C81.0827 21.0508 81.2266 21.0397 81.3594 21.084C81.4922 21.1061 81.6361 21.1393 81.791 21.1836C81.8353 21.2057 81.8796 21.2611 81.9238 21.3496C82.0124 21.5046 82.0677 21.7923 82.0898 22.2129C82.2005 21.9694 82.3444 21.7702 82.5215 21.6152C82.6986 21.4603 82.8757 21.3496 83.0527 21.2832C83.2741 21.1947 83.4954 21.1393 83.7168 21.1172C83.8717 21.0951 84.1374 21.2168 84.5137 21.4824C84.9121 21.748 85.2884 22.1686 85.6426 22.7441C86.0189 23.3197 86.3398 24.0723 86.6055 25.002C86.8711 25.9095 86.9707 27.0052 86.9043 28.2891ZM84.6465 27.8906C84.6686 27.3594 84.6465 26.8281 84.5801 26.2969C84.5358 25.7435 84.4473 25.2454 84.3145 24.8027C84.2038 24.3379 84.0599 23.9727 83.8828 23.707C83.7057 23.4193 83.5286 23.2754 83.3516 23.2754C83.1523 23.3197 82.931 23.4193 82.6875 23.5742C82.4883 23.707 82.2669 23.9173 82.0234 24.2051C81.7799 24.4928 81.5475 24.9023 81.3262 25.4336C81.304 25.3672 81.2819 25.2454 81.2598 25.0684C81.2376 24.9134 81.2155 24.7142 81.1934 24.4707C81.1934 24.2051 81.2155 23.8509 81.2598 23.4082C80.9499 23.7845 80.7064 24.2272 80.5293 24.7363C80.3743 25.2454 80.2526 25.7324 80.1641 26.1973C80.0755 26.7507 80.0091 27.304 79.9648 27.8574C79.9427 28.4551 79.9648 29.0417 80.0312 29.6172C80.1198 30.1927 80.2526 30.7018 80.4297 31.1445C80.6289 31.5872 80.8613 31.9414 81.127 32.207C81.3926 32.4727 81.7135 32.5944 82.0898 32.5723C82.4661 32.5501 82.7982 32.3952 83.0859 32.1074C83.3737 31.8197 83.6283 31.4544 83.8496 31.0117C84.071 30.569 84.248 30.071 84.3809 29.5176C84.5137 28.9642 84.6022 28.4219 84.6465 27.8906ZM92.3496 34.2988C91.8848 34.2988 91.4089 34.1771 90.9219 33.9336C90.4349 33.6901 89.9811 33.3249 89.5605 32.8379C89.14 32.3288 88.7969 31.709 88.5312 30.9785C88.2656 30.2259 88.1328 29.3516 88.1328 28.3555C88.1328 26.8945 88.321 25.6882 88.6973 24.7363C89.0736 23.7624 89.5273 22.9876 90.0586 22.4121C90.612 21.8145 91.2096 21.3939 91.8516 21.1504C92.4935 20.9069 93.0801 20.7852 93.6113 20.7852C94.1647 20.7852 94.6185 20.8848 94.9727 21.084C95.349 21.2611 95.6589 21.4714 95.9023 21.7148V21.084C96.0352 20.9733 96.179 20.8737 96.334 20.7852C96.5111 20.6966 96.6882 20.6302 96.8652 20.5859C97.0423 20.5195 97.2305 20.4863 97.4297 20.4863H97.9277C98.0605 20.5085 98.1934 20.5306 98.3262 20.5527C98.4811 20.5749 98.5918 20.6302 98.6582 20.7188C98.5254 23.6185 98.4147 25.9648 98.3262 27.7578C98.2376 29.5508 98.1712 30.9453 98.127 31.9414C98.0605 33.1146 98.0163 33.9668 97.9941 34.498C97.9499 35.4277 97.8281 36.3464 97.6289 37.2539C97.4297 38.1836 97.1198 39.0137 96.6992 39.7441C96.2786 40.4746 95.7253 41.0612 95.0391 41.5039C94.3529 41.9466 93.5117 42.168 92.5156 42.168C91.6523 42.168 90.9551 42.002 90.4238 41.6699C89.9147 41.3379 89.5163 40.9284 89.2285 40.4414C88.9629 39.9544 88.7858 39.4342 88.6973 38.8809C88.6087 38.3496 88.5645 37.8626 88.5645 37.4199C88.5645 37.3092 88.6198 37.1432 88.7305 36.9219C88.8633 36.7005 89.0404 36.4681 89.2617 36.2246C89.5052 36.0033 89.804 35.804 90.1582 35.627C90.5124 35.4499 90.9108 35.3392 91.3535 35.2949C91.1543 35.8926 91.0326 36.4349 90.9883 36.9219C90.944 37.1875 90.9329 37.4531 90.9551 37.7188C90.9551 38.4492 91.099 39.0579 91.3867 39.5449C91.6745 40.0319 92.1172 40.2754 92.7148 40.2754C93.3568 40.2754 93.877 39.9987 94.2754 39.4453C94.6738 38.9141 94.9727 38.2611 95.1719 37.4863C95.3932 36.7337 95.5371 35.9368 95.6035 35.0957C95.6921 34.2767 95.7363 33.5794 95.7363 33.0039V32.041C95.6035 32.2845 95.4375 32.5391 95.2383 32.8047C95.0612 33.0703 94.8398 33.3138 94.5742 33.5352C94.3086 33.7565 93.9876 33.9336 93.6113 34.0664C93.2572 34.2214 92.8366 34.2988 92.3496 34.2988ZM93.7109 22.6777C93.3346 22.6777 92.9694 22.8438 92.6152 23.1758C92.2832 23.5078 91.9844 23.9505 91.7188 24.5039C91.4531 25.0352 91.2428 25.6439 91.0879 26.3301C90.9329 27.0163 90.8555 27.7025 90.8555 28.3887C90.8555 28.8314 90.8776 29.2852 90.9219 29.75C90.9883 30.2148 91.099 30.6465 91.2539 31.0449C91.431 31.4212 91.6523 31.7311 91.918 31.9746C92.1836 32.2181 92.5378 32.3398 92.9805 32.3398C93.3125 32.3177 93.6224 32.1849 93.9102 31.9414C94.1536 31.7422 94.3971 31.4212 94.6406 30.9785C94.9062 30.5358 95.1165 29.9049 95.2715 29.0859C95.4486 29.263 95.5814 29.429 95.6699 29.584C95.7806 29.7389 95.8691 29.8828 95.9355 30.0156C95.9577 29.8385 95.9688 29.6283 95.9688 29.3848C95.9909 29.1413 96.002 28.8646 96.002 28.5547C96.002 27.957 95.9688 27.3151 95.9023 26.6289C95.8359 25.9206 95.7142 25.2786 95.5371 24.7031C95.3822 24.1276 95.1497 23.6517 94.8398 23.2754C94.5521 22.877 94.1758 22.6777 93.7109 22.6777Z" fill="#4A69BD"/>
</svg>
